<svg xmlns="http://www.w3.org/2000/svg" viewBox="0 0 400 400" xmlns:xlink="http://www.w3.org/1999/xlink">

<g transform="scale(0.65) translate(0,300)">

	<g id="python" transform="scale(3) translate(0,-100)">
	  <defs>
		<linearGradient id="pyYellow" gradientTransform="rotate(45)">
		  <stop stop-color="#fe5" offset="0.6"/>
		  <stop stop-color="#da1" offset="1"/>
		</linearGradient>
		<linearGradient id="pyBlue" gradientTransform="rotate(45)">
		  <stop stop-color="#69f" offset="0.4"/>
		  <stop stop-color="#468" offset="1"/>
		</linearGradient>
	  </defs>

	  <path d="M27,16c0-7,9-13,24-13c15,0,23,6,23,13l0,22c0,7-5,12-11,12l-24,0c-8,0-14,6-14,15l0,10l-9,0c-8,0-13-9-13-24c0-14,5-23,13-23l35,0l0-3l-24,0l0-9l0,0z M88,50v1" fill="url(#pyBlue)"/>
	  <path d="M74,87c0,7-8,13-23,13c-15,0-24-6-24-13l0-22c0-7,6-12,12-12l24,0c8,0,14-7,14-15l0-10l9,0c7,0,13,9,13,23c0,15-6,24-13,24l-35,0l0,3l23,0l0,9l0,0z M140,50v1" fill="url(#pyYellow)"/>

	  <circle r="4" cx="64" cy="88" fill="#FFF"/>
	  <circle r="4" cx="37" cy="15" fill="#FFF"/>
	</g> 
	
	
	<g id="opensearch" transform="scale(3) translate(110,-100)">
	  <defs>
		<linearGradient
		   x1="0.085" y1="0.085" x2="0.915" y2="0.915" id="OpenSearchg">
		  <stop offset="0" stop-color="#1417cc" stop-opacity="1"/>
		  <stop offset="0.5" stop-color="#1517cc" stop-opacity="0"/>
		  <stop offset="1" stop-color="#1517cc" stop-opacity="1"/>
		</linearGradient>
	  </defs>
	  <g transform="scale(0.39)">
	  <rect width="256" height="256" rx="55" ry="55" x="0" y="0" fill="#1517cc"/>
	  <rect width="246" height="246" rx="50" ry="50" x="5" y="5" fill="#5252f4"/>
	  <rect width="236" height="236" rx="45" ry="45" x="10" y="10"
		 fill="url(#OpenSearchg)"/>
	  <path fill="none" stroke="#fff" stroke-width="26"
		 d="M 178 103 A 74 74 0 1 1  30,103 A 74 74 0 1 1  178 103 z"
		 transform="matrix(0.918696,0,0,0.918696,4.331024,5.50348)" />
	  <rect fill="#fff" stroke="none"
		 width="102.33237" height="39.089138" x="211.87753" y="-19.544645"
		 transform="matrix(0.707107,0.707107,-0.707107,0.707107,0,0)" />
	  </g>
	</g>


	<g id="lineargradient4" transform="scale(1.3) translate(-80,-100)">
	  <defs id="defs4">
		<linearGradient
		   id="linearGradient3193"
		   gradientUnits="xuserSpaceOnUse"
		   x1="0%"
		   y1="0%"
		   x2="100%"
		   y2="0%">
		  <stop
			 style="stop-color:#0000ff;stop-opacity:1;"
			 offset="0"
			 id="stop3195" />
		  <stop
			 style="stop-color:#ff0000;stop-opacity:1;"
			 offset="1"
			 id="stop3197" />
		</linearGradient>
	  </defs>
	  <g id="layer1">
		<rect
		   style="fill:url(#linearGradient3193);fill-opacity:1;"
		   id="rect3193"
		   width="397.14285"
		   height="157.14285"
		   x="128.57143"
		   y="160.93361" />
	  </g>
	</g>
	
</g>
	
<rect x="1" y="1" width="10" height="10" />

</svg>
